# xmcd
#
# Track frame offsets:
#	183
#	15865
#	31668
#	46195
#	57265
#	75485
#	91445
#	109663
#	129853
#	145470
#
# Disc length: 2085 seconds
#
# Revision: 2
# Processed by: cddbd v1.5.2PL0 Copyright (c) Steve Scherf et al.
# Submitted via: audiograbber 1.83.01
#
DISCID=6d08230a
DTITLE=The Bama Band - Solid Ground
DYEAR=1988
DGENRE=Country
TTITLE0=Southern Accent
TTITLE1=Real Old-Fashioned Broken Heart
TTITLE2=Solid Ground
TTITLE3=I Got A Rocket In My Pocket
TTITLE4=When We Get Back To The Farm
TTITLE5=High School Buddies
TTITLE6=She Takes My Breath Away
TTITLE7=It's Gotta Be Love
TTITLE8=Ellen B.
TTITLE9=White Lightnin'
EXTD=
EXTT0=
EXTT1=
EXTT2=
EXTT3=
EXTT4=
EXTT5=
EXTT6=
EXTT7=
EXTT8=
EXTT9=
PLAYORDER=
